#N canvas 234 234 496 260 12;
#X obj 50 45 inlet~;
#X text 101 44 x1;
#X obj 50 175 outlet~;
#X obj 151 45 inlet~;
#X text 202 44 x2;
#X obj 50 108 expr~ $v1 * $v2;
#X connect 0 0 5 0;
#X connect 3 0 5 1;
#X connect 5 0 2 0;
