#N canvas 1041 333 365 350 12;
#X obj 44 46 inlet~;
#X obj 44 102 tabread~ \$1;
#X obj 44 250 outlet~;
#X obj 44 166 *~ 2;
#X obj 44 190 -~ 1;
#X text 145 142 % 2;
#X obj 44 142 expr~ $v1 & 1;
#X connect 0 0 1 0;
#X connect 1 0 6 0;
#X connect 3 0 4 0;
#X connect 4 0 2 0;
#X connect 6 0 3 0;
