#N canvas 212 0 1582 1028 12;
#X text 351 82 x;
#X text 1132 200 based on Raouf Touti's explanations and code on https://rtouti.github.io/graphics/perlin-noise-algorithm
;
#X obj 300 83 inlet~;
#X text 1160 82 persistance;
#X obj 300 187 wrap~;
#X obj 455 188 expr~ $v1 & 255;
#X text 307 110 multiply by octave factor;
#X text 308 167 xf: 0..1;
#X text 460 168 X: int 0..255;
#X obj 454 316 tabread~ \$2;
#X obj 454 339 +~;
#X obj 254 472 tabread~ \$2;
#X obj 545 472 tabread~ \$2;
#X obj 300 902 expr~ $v1 * $v2;
#X obj 300 940 outlet~;
#X obj 1107 933 outlet~;
#X text 1169 933 amplitude outlet;
#X obj 1108 160 expr~ pow($v1 \, \$1);
#X obj 1108 83 inlet~;
#X obj 300 131 expr~ $v1 * (1 << \$1);
#X text 34 84 args: count \, permutation table name, f 36;
#X obj 545 496 perlin.1d~-getvector \$2;
#X text 115 672 left;
#X text 408 672 right;
#X obj 402 648 perlin.1d~-dotproduct;
#X obj 300 785 perlin.1d~-lerp;
#X obj 299 705 perlin.1d~-ease;
#X obj 109 648 perlin.1d~-dotproduct;
#X obj 254 496 perlin.1d~-getvector \$2;
#X obj 319 215 -~ 1;
#X connect 2 0 19 0;
#X connect 4 0 26 0;
#X connect 4 0 27 0;
#X connect 4 0 29 0;
#X connect 5 0 9 0;
#X connect 9 0 10 0;
#X connect 10 0 11 0;
#X connect 10 0 12 0;
#X connect 11 0 28 0;
#X connect 12 0 21 0;
#X connect 13 0 14 0;
#X connect 17 0 13 1;
#X connect 17 0 15 0;
#X connect 18 0 17 0;
#X connect 19 0 4 0;
#X connect 19 0 5 0;
#X connect 21 0 24 1;
#X connect 24 0 25 2;
#X connect 25 0 13 0;
#X connect 26 0 25 0;
#X connect 27 0 25 1;
#X connect 28 0 27 1;
#X connect 29 0 24 0;
